<?xml version="1.0" standalone="no"?>
<!DOCTYPE svg PUBLIC "-//W3C//DTD SVG 20010904//EN"
 "http://www.w3.org/TR/2001/REC-SVG-20010904/DTD/svg10.dtd">
<svg version="1.0" xmlns="http://www.w3.org/2000/svg"
 width="640.000000pt" height="640.000000pt" viewBox="0 0 640.000000 640.000000"
 preserveAspectRatio="xMidYMid meet">

<g transform="translate(0.000000,640.000000) scale(0.100000,-0.100000)"
fill="#000000" stroke="none">
<path d="M3830 5436 c-30 -12 -61 -21 -68 -18 -7 2 -19 -3 -25 -12 -18 -24
-156 -68 -194 -62 -28 4 -36 0 -54 -26 -12 -17 -41 -39 -64 -49 -23 -10 -49
-26 -56 -35 -8 -9 -33 -25 -56 -35 -42 -18 -73 -59 -73 -96 0 -10 -9 -35 -20
-56 -11 -20 -20 -43 -20 -51 0 -8 -6 -21 -14 -29 -36 -36 -67 -207 -54 -297
12 -82 15 -278 4 -307 -4 -14 -3 -23 2 -23 6 0 16 33 22 73 7 39 23 99 36 132
14 33 29 83 34 112 5 29 17 65 28 80 10 15 34 51 53 80 52 79 74 88 203 86 60
-1 114 -7 120 -13 7 -7 6 -10 -4 -10 -7 0 -11 -2 -9 -5 3 -2 25 3 49 11 25 9
72 17 104 19 51 3 68 -1 125 -29 36 -18 99 -45 138 -60 40 -15 75 -31 78 -35
2 -4 11 -42 20 -84 18 -86 60 -158 142 -243 30 -30 52 -63 56 -83 11 -52 -3
-268 -24 -374 -20 -107 -82 -268 -119 -313 -29 -35 -162 -145 -168 -139 -3 2
25 57 60 122 63 115 77 153 37 103 -42 -53 -149 -199 -186 -253 -21 -31 -59
-78 -84 -104 -42 -44 -55 -50 -145 -75 -111 -31 -158 -29 -247 11 -27 11 -52
19 -56 16 -5 -2 -16 -30 -26 -62 -10 -32 -28 -79 -41 -105 -20 -39 -24 -63
-24 -137 0 -83 -4 -100 -46 -213 -25 -68 -68 -190 -95 -273 -27 -82 -53 -163
-58 -178 -10 -28 -9 -28 22 -22 18 4 34 7 37 8 17 2 60 -29 60 -44 0 -14 8
-17 44 -16 30 1 50 -4 64 -16 20 -18 213 -90 220 -82 5 4 -46 26 -103 45 -22
7 -44 17 -50 22 -15 14 65 84 113 99 36 10 47 9 96 -11 64 -26 91 -50 57 -50
-13 0 -20 -4 -15 -11 3 -6 17 -8 30 -5 16 4 24 2 24 -7 0 -8 31 -19 88 -30 48
-10 98 -27 112 -37 30 -23 27 -24 -25 -5 -22 8 -65 14 -95 13 l-55 -1 70 -8
c39 -5 81 -13 95 -18 14 -6 40 -13 57 -16 21 -4 46 -22 72 -51 40 -45 56 -48
40 -6 -5 12 -31 37 -59 54 -27 17 -50 32 -50 34 0 7 173 -10 217 -23 65 -18
117 -52 121 -80 4 -27 -43 -57 -122 -77 -328 -86 -1275 -88 -1637 -5 -95 22
-158 62 -146 92 14 37 103 70 242 92 39 6 39 6 14 -9 -26 -15 -67 -81 -57 -91
4 -4 26 12 50 36 43 42 128 88 223 120 44 15 46 17 20 18 -16 0 -50 -4 -74
-10 -23 -5 -70 -13 -102 -18 -85 -11 -92 4 -24 58 56 44 68 73 39 89 -12 7 -4
13 35 30 28 11 51 25 51 31 0 5 -13 18 -30 27 -27 17 -28 19 -11 31 10 7 21
25 24 41 3 17 21 40 41 56 42 31 44 41 14 73 -12 13 -19 25 -17 28 3 2 32 0
65 -5 32 -6 78 -10 101 -10 38 0 42 -3 48 -30 8 -37 1 -48 -41 -66 -38 -16
-40 -22 -20 -49 12 -17 12 -21 -5 -33 -28 -19 -24 -51 8 -63 l27 -10 -32 -25
c-27 -21 -32 -32 -32 -66 0 -27 4 -38 12 -36 7 3 13 15 13 28 0 17 10 29 38
44 43 23 50 56 15 81 l-23 15 29 23 c26 21 27 24 12 39 -20 20 -20 28 -3 28
23 0 47 35 47 68 0 26 5 32 35 42 19 6 37 20 40 31 7 20 -18 69 -34 69 -5 0
-9 20 -8 44 2 44 3 45 44 57 24 6 43 17 43 24 0 7 -16 25 -35 39 -43 33 -44
58 -5 98 32 31 39 58 16 58 -20 0 -96 -86 -96 -109 0 -11 14 -31 30 -44 17
-14 30 -28 30 -31 0 -3 -16 -8 -35 -12 -31 -6 -35 -10 -35 -38 0 -61 -13 -66
-112 -48 -49 8 -88 20 -88 25 0 6 -7 19 -17 29 -15 17 -15 20 7 43 14 15 21
31 17 44 -3 15 5 27 30 46 27 21 32 30 22 41 -12 15 -24 10 -69 -25 -23 -18
-24 -22 -11 -42 12 -20 11 -24 -10 -40 -13 -10 -27 -19 -31 -19 -16 0 -7 -22
15 -40 33 -28 13 -41 -47 -29 -27 5 -52 11 -54 14 -3 3 9 40 25 82 17 43 27
80 22 81 -13 5 -93 -14 -229 -55 -108 -33 -121 -34 -215 -29 -154 10 -199 17
-213 35 -9 11 -15 12 -20 5 -13 -21 -47 -32 -121 -39 -41 -4 -97 -16 -125 -26
-32 -12 -40 -17 -21 -14 17 2 75 9 129 15 55 6 110 13 122 16 29 7 74 -35 74
-69 0 -38 -26 -51 -109 -58 -257 -21 -358 -49 -420 -114 -22 -23 -37 -45 -34
-49 17 -17 56 -3 92 34 56 58 110 77 258 90 70 7 145 14 166 15 20 2 44 11 53
19 8 9 28 16 44 16 22 0 31 -6 38 -27 9 -25 10 -26 11 -5 1 18 7 22 30 22 17
0 33 -4 36 -10 10 -17 -26 -73 -90 -140 -35 -36 -77 -81 -94 -100 l-31 -35 6
55 c5 50 10 59 57 102 29 25 49 49 46 52 -3 3 -47 -7 -97 -24 -50 -16 -100
-30 -111 -30 -11 0 -57 -9 -103 -20 -59 -14 -89 -26 -104 -44 -12 -13 -30 -27
-40 -30 -18 -6 -92 -86 -79 -86 11 0 48 22 69 42 38 35 107 70 179 89 40 11
81 24 92 29 25 11 85 19 85 11 0 -13 -20 -32 -114 -115 -55 -48 -105 -98 -113
-113 -16 -30 -16 -36 -3 -28 6 4 10 -9 10 -33 0 -27 -7 -45 -22 -59 -21 -19
-35 -21 -128 -19 -93 1 -110 4 -151 27 l-46 26 -12 -49 c-19 -82 -14 -108 35
-195 155 -273 421 -536 715 -706 l46 -26 18 102 c31 182 82 438 89 444 3 3 14
-1 23 -9 10 -9 33 -23 51 -32 l32 -17 -35 -30 c-19 -17 -35 -37 -35 -43 0 -19
39 -50 98 -76 28 -13 52 -26 52 -30 0 -10 -68 -28 -139 -35 l-65 -7 35 -28
c37 -31 37 -31 -8 -49 -37 -15 -35 -28 7 -56 l31 -20 -28 -22 -27 -22 22 -24
22 -24 -35 -19 c-40 -21 -43 -33 -15 -59 17 -15 20 -16 20 -3 0 9 16 28 36 43
l35 27 -21 23 -22 23 26 17 c34 23 33 30 -9 58 l-36 24 41 17 c44 17 48 35 12
51 -31 14 -27 25 8 25 37 0 120 18 140 30 13 8 12 12 -5 30 -11 11 -45 32 -74
47 -30 16 -56 33 -58 39 -2 6 8 22 23 37 14 14 23 31 19 37 -3 5 -2 10 2 10
14 0 83 -50 83 -60 0 -16 72 -90 102 -106 l29 -15 -45 -35 c-52 -39 -55 -47
-26 -67 20 -14 19 -14 -5 -25 -20 -9 -24 -17 -20 -35 4 -16 -1 -29 -19 -47
-33 -30 -33 -47 -1 -72 27 -21 33 -48 12 -48 -7 0 -21 -6 -30 -13 -14 -10 -14
-18 -5 -54 13 -45 26 -57 48 -43 11 7 12 14 2 35 -17 37 -15 43 18 60 36 19
39 42 6 57 -37 16 -39 35 -6 58 23 17 30 29 30 55 0 25 6 38 21 45 19 11 19
13 5 29 -22 24 -21 26 18 56 l34 26 64 -19 c56 -18 63 -22 60 -43 -3 -19 -80
-317 -99 -380 -11 -37 209 -64 461 -56 213 6 379 35 558 97 114 39 228 86 228
94 0 2 -41 14 -92 26 -71 17 -145 23 -330 30 -241 10 -392 27 -483 57 -99 32
-175 80 -175 111 0 19 103 7 139 -16 21 -14 62 -18 258 -20 l233 -4 83 41 c71
36 96 42 180 50 54 5 105 15 113 22 8 6 14 29 14 50 0 63 43 122 112 155 56
27 60 27 86 12 15 -9 45 -19 66 -24 l40 -7 -27 -21 c-14 -12 -36 -28 -49 -37
l-22 -16 39 -21 40 -20 -44 -40 -43 -40 31 -18 c36 -21 38 -28 11 -40 -14 -6
-17 -13 -10 -24 8 -12 13 -12 44 3 44 20 46 35 6 50 -16 6 -30 14 -30 17 0 4
14 19 30 35 36 35 38 50 6 70 l-24 16 41 38 c44 42 43 56 -6 66 -75 15 -74 14
-16 65 47 41 52 49 40 64 -20 24 -6 62 29 76 35 14 38 25 11 40 -14 7 -21 6
-24 -3 -3 -6 -6 -3 -6 8 -1 13 9 25 29 34 25 10 28 16 19 27 -13 16 -39 19
-39 5 0 -23 -44 -22 -94 3 -29 14 -82 32 -117 39 l-64 13 0 36 c0 33 4 38 38
52 43 17 46 28 12 46 -33 18 -32 23 10 43 42 20 44 36 8 68 l-28 24 68 7 c99
9 100 11 93 61 l-6 42 50 1 c28 1 53 4 56 7 4 3 -3 21 -15 40 l-21 34 31 7
c17 3 49 6 70 6 22 0 39 5 39 10 0 12 -40 71 -54 82 -5 3 7 10 27 13 40 8 42
13 28 62 -10 35 -8 36 79 45 21 3 25 7 22 34 -2 24 2 33 23 42 27 12 34 42 10
42 -8 0 -30 -8 -50 -17 -32 -15 -35 -20 -30 -45 6 -27 5 -28 -37 -28 -61 0
-72 -10 -65 -59 4 -33 2 -41 -11 -42 -40 -3 -45 -5 -49 -15 -2 -7 2 -18 10
-26 14 -14 37 -52 37 -62 0 -3 -21 -6 -47 -6 -74 0 -83 -12 -58 -74 8 -17 4
-18 -44 -14 -28 3 -54 2 -56 -2 -2 -4 1 -23 7 -44 8 -23 8 -40 2 -46 -6 -6
-45 -13 -87 -16 -42 -4 -77 -11 -77 -15 0 -5 14 -24 31 -43 l30 -35 -40 -21
c-23 -11 -41 -23 -41 -27 0 -4 10 -17 21 -30 24 -24 24 -23 -27 -38 -8 -2 -10
-20 -6 -50 l5 -47 -84 7 c-46 4 -88 11 -93 15 -10 9 -32 -23 542 801 l63 91
-26 69 c-30 78 -45 94 -45 49 0 -27 -3 -30 -23 -25 -18 5 -23 2 -24 -16 -3
-30 -9 -34 -38 -21 -29 14 -34 36 -6 27 16 -5 20 0 23 22 2 22 8 28 26 26 18
-2 22 2 22 27 0 32 -56 120 -77 120 -20 0 -36 79 -28 145 3 33 15 96 27 140
11 44 23 90 25 103 5 21 10 23 42 18 60 -9 96 24 147 133 24 53 28 154 10 259
-9 56 -12 101 -7 110 5 10 11 76 14 147 3 72 13 163 21 202 27 124 24 166 -18
273 -21 52 -55 116 -74 142 -33 44 -187 158 -213 158 -7 0 -26 8 -43 19 -17
10 -52 22 -78 25 -28 4 -60 17 -77 32 -16 13 -33 24 -38 23 -24 -4 -35 2 -26
14 16 22 9 42 -14 39 -12 -2 -24 2 -28 8 -10 16 -56 11 -115 -14z m647 -1134
c25 -16 46 -106 45 -191 -2 -91 -3 -95 -77 -176 l-45 -50 -20 24 c-24 28 -26
61 -5 61 8 0 15 9 15 21 0 33 17 56 50 68 35 12 36 33 6 89 -45 86 -25 189 31
154z m-258 -888 c-6 -7 -20 -16 -32 -20 -12 -4 -27 -12 -33 -18 -7 -6 -61 -38
-119 -71 -58 -33 -169 -102 -247 -152 -78 -51 -153 -93 -165 -93 -37 0 -68 26
-117 99 -83 125 -89 176 -15 137 95 -49 209 -65 310 -42 139 31 236 107 343
271 33 50 64 93 70 97 16 10 21 -189 5 -208z m-627 -471 c28 -33 30 -55 7 -80
-45 -46 -107 -13 -100 54 4 39 66 56 93 26z m-197 -3 c3 -5 -1 -20 -9 -32 -14
-19 -14 -23 1 -33 17 -13 9 -39 -10 -32 -16 5 -16 107 0 107 6 0 15 -4 18 -10z
m530 0 c12 -19 -15 -50 -44 -50 -25 0 -27 -3 -23 -30 5 -33 -14 -47 -45 -35
-17 6 -17 7 0 19 9 7 17 25 17 39 0 23 5 26 38 29 28 2 37 7 36 21 -2 18 11
23 21 7z m-1175 -175 c32 -5 80 -45 80 -66 0 -5 -13 -18 -29 -30 -16 -12 -32
-34 -35 -50 -3 -19 -17 -36 -36 -47 -37 -21 -37 -29 0 -50 16 -9 30 -20 30
-24 0 -3 -22 -12 -50 -19 -27 -7 -50 -16 -50 -20 0 -4 12 -17 28 -30 17 -14
22 -23 15 -26 -7 -3 -35 -23 -62 -46 -45 -38 -48 -43 -35 -61 21 -30 18 -36
-20 -36 -19 0 -47 -5 -61 -10 -26 -10 -26 -9 -20 22 7 34 120 374 152 460 14
38 22 46 38 43 11 -2 36 -6 55 -10z m1023 -372 c-13 -2 -33 -2 -45 0 -13 2 -3
4 22 4 25 0 35 -2 23 -4z"/>
<path d="M3530 2925 c-6 -8 -10 -20 -7 -27 4 -9 6 -7 6 3 2 29 51 36 51 7 0
-6 -7 -20 -17 -30 -18 -20 -4 -25 15 -6 17 17 15 55 -4 62 -23 9 -30 8 -44 -9z"/>
<path d="M2165 5136 c-44 -18 -105 -38 -135 -44 -31 -7 -69 -21 -87 -31 -22
-14 -42 -18 -71 -14 -32 4 -55 -1 -108 -26 -36 -17 -81 -31 -99 -31 -40 0
-202 -64 -231 -91 -20 -18 -21 -33 -27 -252 -3 -128 -10 -245 -15 -261 -6 -24
-23 -37 -81 -67 -41 -21 -85 -48 -99 -62 l-24 -25 21 -223 c12 -123 24 -252
27 -286 4 -41 12 -71 26 -89 19 -24 26 -26 77 -22 35 2 82 16 124 36 57 26 71
30 92 20 21 -10 39 -6 111 21 47 18 88 30 91 28 2 -3 28 1 55 10 39 11 57 12
75 4 39 -18 61 -13 132 29 37 22 77 40 90 40 12 0 54 18 92 41 62 36 74 39 99
30 36 -12 89 -4 149 21 24 10 58 18 75 16 17 -1 45 6 63 15 18 9 49 17 70 17
24 0 61 13 100 34 53 28 70 33 108 28 56 -6 69 5 137 107 64 97 64 124 2 196
l-46 54 26 65 c46 114 25 221 -50 265 -56 33 -164 23 -254 -24 -19 -10 -49
-19 -67 -21 -17 -1 -59 -14 -92 -29 -68 -31 -86 -29 -93 12 -38 213 -47 286
-38 302 10 19 2 91 -20 169 -21 80 -77 90 -205 38z m128 -93 c3 -27 9 -56 12
-66 6 -13 -1 -20 -31 -33 -80 -31 -84 -35 -84 -76 l0 -38 40 20 c53 27 66 25
74 -11 10 -54 8 -59 -47 -83 -56 -24 -71 -43 -57 -66 7 -12 13 -12 37 -1 42
20 82 30 87 23 2 -4 7 -32 10 -63 l7 -56 -38 -17 c-21 -10 -74 -35 -117 -57
-43 -22 -81 -38 -82 -36 -3 3 -44 486 -44 513 0 1 24 12 53 22 28 11 77 32
107 46 30 13 58 25 61 25 3 1 9 -20 12 -46z m-242 -269 c6 -126 11 -239 12
-252 2 -18 -9 -29 -45 -49 -27 -15 -50 -24 -52 -22 -6 7 -38 489 -33 502 3 7
23 19 46 25 22 7 43 17 47 23 3 6 8 8 10 6 2 -2 9 -107 15 -233z m-182 94 c15
-110 47 -273 66 -341 l14 -48 -66 -30 c-37 -16 -69 -26 -73 -22 -4 4 -15 62
-24 128 -10 66 -20 125 -21 130 -2 6 -4 -55 -4 -135 -1 -80 -4 -154 -7 -166
-6 -21 -63 -49 -74 -36 -4 4 -17 86 -29 182 -13 96 -24 180 -26 185 -2 6 -5
-55 -6 -135 -2 -80 -3 -158 -3 -175 -1 -27 -7 -32 -69 -58 -38 -16 -70 -27
-72 -25 -1 2 2 37 7 78 5 41 12 158 16 260 l7 185 74 28 c40 15 75 26 77 24 2
-2 11 -48 19 -102 8 -54 17 -100 20 -103 3 -3 5 42 5 100 l0 105 68 31 c37 17
72 31 78 31 6 1 16 -40 23 -91z m1032 -265 c8 -9 14 -39 14 -73 -1 -47 -7 -67
-33 -110 -18 -28 -32 -56 -32 -62 0 -6 26 -40 57 -75 l56 -65 -22 -42 c-13
-23 -32 -52 -43 -66 -16 -20 -21 -22 -28 -10 -5 8 -26 38 -47 67 -21 28 -43
59 -49 70 -9 14 -11 -1 -7 -67 l5 -86 -51 -28 c-35 -19 -51 -23 -52 -14 0 7
-2 27 -4 43 -2 17 -9 118 -15 226 -7 108 -13 205 -13 214 -2 18 57 54 133 81
51 19 115 17 131 -3z m-289 -80 c0 -16 1 -35 0 -43 -2 -28 18 -365 24 -396 5
-29 2 -33 -46 -58 -29 -15 -53 -26 -55 -24 -2 3 -35 465 -35 496 0 12 71 50
98 51 6 1 13 -11 14 -26z m-154 -33 c17 -11 32 -23 32 -26 0 -3 -12 -28 -27
-55 -20 -38 -32 -49 -50 -49 -95 0 -136 -262 -45 -285 23 -6 32 -1 58 29 l32
37 20 -33 c20 -31 20 -35 5 -58 -64 -102 -150 -123 -219 -54 -72 72 -86 257
-30 379 29 63 68 112 101 125 35 15 89 11 123 -10z m-274 -71 c3 -17 6 -86 6
-153 0 -66 5 -164 10 -216 8 -73 7 -97 -2 -106 -12 -11 -85 -54 -92 -54 -2 0
-20 27 -40 60 -21 33 -41 60 -45 60 -4 0 -4 -24 0 -52 12 -84 12 -84 -41 -117
-28 -17 -52 -31 -55 -31 -3 0 -5 14 -5 30 0 17 -2 30 -5 30 -3 0 -33 -14 -66
-30 -33 -17 -64 -28 -69 -25 -6 4 -10 22 -10 41 0 37 -2 39 -31 24 -12 -7 -19
-21 -19 -41 0 -27 -6 -33 -62 -58 -35 -16 -66 -26 -70 -22 -3 3 -2 29 2 56 5
28 9 61 9 75 1 23 -1 22 -16 -8 -40 -82 -149 -166 -223 -174 l-35 -3 -3 50
c-1 28 -11 138 -22 245 -11 108 -20 198 -20 201 0 13 167 82 208 87 62 7 82
-15 82 -87 0 -43 -7 -68 -29 -108 l-29 -53 28 0 c19 0 36 -9 49 -26 l21 -27 1
49 c1 27 4 96 8 154 l6 105 95 42 c52 23 97 42 100 42 3 1 12 -45 19 -101 7
-57 24 -157 37 -223 44 -213 47 -208 29 45 -21 278 -24 254 34 279 27 11 53
21 58 21 5 0 14 -26 22 -57 14 -62 57 -193 67 -202 3 -3 3 21 0 54 -3 33 -8
92 -11 132 l-6 72 48 25 c26 14 51 25 54 26 4 0 9 -14 13 -31z m246 -179 c0
-5 -5 -10 -11 -10 -5 0 -7 5 -4 10 3 6 8 10 11 10 2 0 4 -4 4 -10z"/>
<path d="M2767 4463 c-13 -3 -17 -14 -15 -49 0 -24 4 -44 8 -44 10 0 46 52 54
78 8 23 -3 26 -47 15z"/>
<path d="M1723 4105 c2 -63 7 -110 12 -110 12 0 8 113 -5 177 -7 34 -8 19 -7
-67z"/>
<path d="M1424 4126 c-3 -8 -4 -31 -2 -52 l3 -38 17 26 c9 14 20 38 24 52 5
22 3 26 -15 26 -12 0 -24 -6 -27 -14z"/>
<path d="M1458 3948 c-23 -8 -28 -16 -28 -44 0 -42 9 -42 50 -4 45 42 33 69
-22 48z"/>
<path d="M3234 4502 c-12 -8 -37 -52 -32 -57 2 -1 35 -10 75 -19 140 -31 155
-49 53 -59 -67 -7 -96 -22 -104 -51 -5 -19 9 -47 22 -44 4 1 18 -4 31 -11 17
-10 46 -12 98 -8 40 3 73 2 73 -3 0 -11 -64 -30 -105 -31 -16 0 -38 -4 -48 -8
-17 -6 -17 -8 -3 -20 12 -10 32 -12 74 -6 31 4 80 8 107 8 50 2 50 2 64 45 15
50 9 100 -18 134 -19 24 -236 138 -262 138 -8 0 -19 -4 -25 -8z m100 -207 c16
-24 16 -25 -8 -25 -26 0 -51 24 -41 40 11 17 32 11 49 -15z m106 -4 c0 -12
-20 -25 -27 -18 -7 7 6 27 18 27 5 0 9 -4 9 -9z"/>
<path d="M3822 4436 c-73 -23 -136 -47 -140 -53 -4 -6 -7 -55 -6 -108 1 -84 4
-100 23 -118 l21 -21 0 32 c0 37 8 39 117 21 48 -8 87 -9 133 -2 62 10 63 11
20 12 -126 4 -221 33 -172 53 9 4 79 7 155 7 83 1 137 5 137 11 0 5 -18 21
-39 36 -29 19 -66 30 -133 40 -51 8 -99 14 -105 14 -7 0 -13 6 -13 14 0 26
197 43 263 22 40 -12 36 14 -8 53 -48 42 -85 40 -253 -13z m58 -135 c14 -27
13 -31 -9 -31 -23 0 -35 15 -27 35 8 21 23 19 36 -4z"/>
<path d="M3770 4030 c0 -6 9 -14 21 -17 18 -5 20 -11 14 -42 -9 -50 -29 -63
-87 -55 -33 5 -60 2 -88 -10 -45 -18 -106 -21 -115 -6 -5 9 -95 12 -95 4 0 -2
5 -14 11 -28 14 -31 102 -61 169 -59 59 1 206 26 216 35 4 4 12 29 19 55 7 26
17 49 23 51 7 2 41 -28 77 -66 62 -66 99 -90 110 -72 3 5 -10 18 -29 30 -19
11 -68 57 -109 100 -52 57 -83 82 -106 86 -21 5 -31 3 -31 -6z"/>
<path d="M3383 4007 c-25 -27 -65 -98 -60 -104 3 -2 20 7 40 19 28 19 36 31
39 63 3 22 4 41 3 42 -1 2 -11 -7 -22 -20z"/>
<path d="M2866 3892 l-38 -17 5 -100 c6 -112 -5 -101 -22 21 -6 43 -13 79 -15
81 -1 2 -23 -6 -48 -17 l-46 -20 -8 -107 c-8 -104 -8 -106 -15 -53 -4 30 -7
79 -8 107 l-1 53 -26 -12 c-27 -12 -27 -13 -21 -105 5 -88 5 -92 -16 -95 -15
-2 -24 -12 -27 -33 -5 -24 -7 -16 -13 34 -4 35 -7 90 -7 122 0 33 -2 59 -5 59
-2 0 -15 -5 -28 -11 -23 -10 -24 -15 -21 -78 l4 -66 -21 65 c-12 36 -22 66
-24 68 -1 1 -15 -3 -29 -10 -27 -11 -27 -13 -21 -77 3 -36 7 -91 10 -121 l4
-55 -14 55 c-8 30 -20 84 -25 120 -6 35 -13 66 -15 68 -2 2 -24 -4 -49 -13
-39 -15 -46 -22 -46 -45 0 -15 -3 -47 -6 -72 -6 -40 -9 -44 -30 -40 -23 4 -23
5 -8 34 8 16 14 44 12 61 -2 27 -8 33 -31 35 -33 4 -96 -23 -104 -44 -3 -8 0
-66 7 -129 11 -91 16 -115 29 -115 22 0 78 41 92 67 17 32 30 28 23 -7 -7 -34
-8 -34 35 -19 20 7 31 18 31 30 0 25 16 24 23 -1 5 -19 7 -19 37 -3 25 12 34
13 40 3 6 -9 12 -9 29 -1 15 9 21 21 21 49 l1 37 15 -28 c12 -23 20 -27 37
-22 23 7 105 23 147 28 36 5 70 25 70 42 0 8 5 15 10 15 6 0 10 -7 10 -16 0
-12 6 -15 23 -9 12 3 33 9 47 12 40 9 50 23 50 67 l0 41 25 -38 c14 -20 29
-37 33 -37 4 0 15 12 25 25 18 25 17 26 -14 65 -30 37 -31 41 -16 58 23 25 32
78 17 97 -16 19 -44 18 -94 -3z m40 -87 c-3 -8 -10 -15 -16 -15 -14 0 -12 37
3 43 15 5 21 -8 13 -28z m-149 -107 c-2 -13 -4 -3 -4 22 0 25 2 35 4 23 2 -13
2 -33 0 -45z m-416 -65 c2 -23 0 -45 -4 -49 -4 -4 -7 17 -7 46 0 62 7 64 11 3z
m-141 13 c0 -7 -8 -20 -17 -27 -15 -12 -16 -12 -10 4 4 10 7 23 7 28 0 5 5 9
10 9 6 0 10 -6 10 -14z m7 -111 c-21 -20 -27 -19 -27 4 0 11 8 21 18 23 23 5
27 -8 9 -27z"/>
<path d="M3888 3794 c28 -13 -4 -24 -71 -24 -40 0 -101 -5 -136 -10 -43 -6
-71 -5 -84 2 -13 6 -58 8 -128 3 -103 -7 -109 -8 -108 -29 0 -14 25 -39 81
-81 100 -73 126 -85 192 -85 79 0 118 15 214 85 49 35 103 67 118 71 32 8 76
34 57 34 -6 0 -19 7 -28 17 -10 9 -38 17 -68 20 -29 1 -46 0 -39 -3z m-233
-69 c44 0 101 4 128 9 88 16 43 -27 -58 -55 -21 -6 -15 -7 23 -3 63 6 62 -5
-1 -38 -64 -34 -177 -32 -234 5 -53 34 -66 52 -29 43 44 -11 116 -19 116 -13
0 3 -26 11 -59 18 -32 6 -64 15 -72 20 -25 16 11 29 61 21 25 -4 81 -7 125 -7z"/>
<path d="M1944 3653 c-9 -10 -29 -42 -43 -73 -25 -55 -25 -55 -32 -25 -4 17
-7 45 -8 63 0 17 -3 32 -6 32 -2 0 -24 -10 -49 -21 -40 -20 -44 -26 -50 -67
-3 -25 -6 -70 -6 -100 0 -86 -8 -57 -14 48 -3 52 -5 96 -5 98 -1 1 -14 -4 -30
-12 -27 -14 -28 -18 -24 -71 4 -45 2 -55 -11 -55 -13 0 -16 12 -16 59 l0 59
-30 -11 -31 -12 6 -85 c4 -47 8 -95 11 -107 7 -36 -3 -27 -36 30 -35 62 -36
71 -10 104 25 32 25 40 -1 48 -15 5 -25 1 -35 -14 -18 -24 -34 -27 -34 -6 0
12 -4 13 -26 3 l-26 -12 7 -126 c4 -69 9 -127 11 -129 1 -1 13 4 25 13 19 13
23 24 21 68 -1 29 1 46 5 38 3 -8 14 -35 24 -59 l19 -44 27 24 c18 17 27 20
30 11 3 -6 10 -9 16 -5 7 4 17 8 22 8 6 0 11 22 13 48 4 60 26 59 30 -1 3 -40
14 -53 27 -32 4 6 11 8 16 4 19 -11 79 17 79 37 0 10 5 19 10 19 6 0 10 -9 10
-20 0 -19 1 -19 36 -3 34 16 35 20 30 54 -6 35 -4 36 33 47 57 17 67 16 46 -8
-10 -11 -26 -20 -37 -20 -14 0 -18 -8 -18 -35 0 -39 8 -42 50 -20 53 27 93
144 55 159 -8 3 -28 0 -45 -6 -17 -5 -34 -8 -37 -5 -11 12 7 37 27 37 33 0 58
21 52 44 -11 48 -46 60 -78 29z m-124 -169 c0 -19 -4 -33 -9 -29 -8 4 -9 48
-2 63 5 12 11 -5 11 -34z"/>
<path d="M1381 3157 c-17 -17 -13 -45 7 -56 15 -9 15 -10 -5 -11 -16 0 -25 -8
-29 -25 -4 -14 -3 -29 1 -33 8 -9 210 -53 245 -54 37 -1 202 74 189 86 -4 4
-284 78 -381 100 -9 2 -21 -1 -27 -7z"/>
<path d="M1960 3111 c0 -5 29 -9 64 -8 35 1 62 5 59 10 -6 10 -123 9 -123 -2z"/>
<path d="M4715 2903 c-27 -8 -52 -17 -54 -19 -3 -2 6 -16 20 -30 l24 -26 5 23
c5 22 21 30 83 43 32 7 27 26 -6 25 -12 0 -44 -7 -72 -16z"/>
<path d="M4894 2823 c-15 -21 -39 -54 -54 -73 -65 -87 -212 -316 -238 -372
-56 -119 -109 -351 -132 -574 -21 -192 -26 -190 131 -34 249 248 394 495 493
837 32 110 33 119 18 134 -17 16 -179 119 -187 119 -2 0 -16 -17 -31 -37z"/>
<path d="M4718 2790 c-2 -6 -32 -14 -66 -18 l-64 -7 26 -24 c20 -19 26 -21 26
-9 0 21 21 28 81 28 50 0 57 10 19 30 -12 7 -20 6 -22 0z"/>
<path d="M4643 2676 c-6 -7 -37 -17 -67 -20 l-56 -7 21 -30 c29 -41 22 -62
-26 -73 -22 -5 -41 -11 -43 -12 -1 -1 3 -13 9 -28 18 -38 -5 -58 -73 -62 -29
-2 -55 -3 -58 -4 -2 0 4 -6 15 -14 17 -11 30 -12 83 -1 93 19 93 20 82 50 -15
39 -13 42 26 49 43 9 51 26 28 65 -21 36 -18 41 32 47 67 8 75 12 61 35 -14
22 -18 23 -34 5z"/>
<path d="M4403 2372 c-5 -9 -30 -21 -54 -27 l-44 -11 44 -29 c46 -31 46 -31
-13 -49 -18 -6 -18 -7 -1 -20 15 -10 25 -10 61 3 47 17 46 30 -6 51 -17 7 -30
16 -30 20 0 4 20 13 45 20 55 16 59 20 31 42 -21 15 -23 15 -33 0z"/>
<path d="M3005 2330 c-19 -8 -19 -9 2 -9 12 -1 25 4 28 9 7 12 -2 12 -30 0z"/>
<path d="M3123 2323 c-7 -2 -13 -11 -13 -19 0 -17 19 -18 42 0 26 19 5 33 -29
19z m22 -13 c-3 -5 -11 -10 -16 -10 -6 0 -7 5 -4 10 3 6 11 10 16 10 6 0 7 -4
4 -10z"/>
<path d="M2933 2313 c9 -2 25 -2 35 0 9 3 1 5 -18 5 -19 0 -27 -2 -17 -5z"/>
<path d="M3535 2312 c-9 -9 -6 -22 6 -22 5 0 7 5 4 10 -3 6 -2 10 4 10 5 0 11
-5 13 -11 2 -7 8 -6 16 4 10 12 8 15 -12 15 -14 0 -28 -3 -31 -6z"/>
<path d="M3020 2299 c0 -5 9 -9 20 -9 11 0 20 4 20 8 0 4 -9 8 -20 9 -11 1
-20 -2 -20 -8z"/>
<path d="M3453 2299 c14 -8 22 -8 30 0 8 8 3 11 -18 11 -26 -1 -28 -2 -12 -11z"/>
<path d="M3610 2290 c8 -5 20 -10 25 -10 6 0 3 5 -5 10 -8 5 -19 10 -25 10 -5
0 -3 -5 5 -10z"/>
<path d="M2950 2263 c-22 -9 -98 -86 -77 -79 22 7 22 6 -13 -58 -16 -31 -26
-57 -22 -60 14 -8 350 -28 413 -24 70 4 133 31 156 65 13 19 12 24 -8 44 -20
20 -29 21 -103 16 -73 -5 -153 -23 -143 -33 2 -2 30 1 62 7 83 15 150 15 174
0 11 -7 10 -13 -3 -34 -12 -18 -35 -30 -83 -43 -59 -16 -80 -16 -217 -6 -83 7
-170 12 -193 12 -24 0 -43 2 -43 5 0 4 8 20 17 38 9 18 16 36 15 40 -1 5 2 5
8 2 6 -4 19 0 28 8 27 23 98 56 155 72 50 13 50 14 16 14 -20 1 -63 -11 -95
-26 -33 -15 -70 -29 -84 -30 -23 -1 -21 2 20 38 45 39 47 42 20 32z m-30 -83
c0 -5 -5 -10 -11 -10 -5 0 -7 5 -4 10 3 6 8 10 11 10 2 0 4 -4 4 -10z"/>
<path d="M3280 2260 c-11 -7 3 -10 45 -9 43 0 54 3 40 9 -27 12 -67 12 -85 0z"/>
<path d="M5082 2258 c-7 -7 -12 -19 -12 -28 0 -9 -5 -21 -10 -26 -8 -8 8 -19
51 -38 39 -18 64 -25 71 -18 6 6 -9 17 -41 31 -37 15 -51 27 -51 41 0 25 22
25 78 0 32 -14 42 -16 42 -6 0 8 -22 23 -49 35 -58 24 -63 25 -79 9z"/>
<path d="M2800 2238 c-30 -12 -70 -37 -90 -56 l-35 -35 35 25 c19 13 61 37 93
52 31 14 57 29 57 31 0 6 4 7 -60 -17z"/>
<path d="M3620 2245 c14 -8 21 -15 15 -15 -5 -1 1 -6 14 -11 16 -6 28 -6 34 0
7 7 4 12 -9 16 -10 4 -27 11 -36 16 -29 15 -45 10 -18 -6z"/>
<path d="M2800 2201 c-42 -27 -111 -91 -98 -91 3 0 28 18 54 40 27 22 52 40
56 40 4 0 -6 -20 -22 -44 -41 -60 -38 -80 3 -25 90 120 91 134 7 80z"/>
<path d="M3297 2221 c-10 -4 -18 -11 -17 -16 0 -6 -26 -15 -58 -22 -85 -17
-167 -48 -193 -72 -28 -26 -16 -27 20 -2 35 25 138 58 223 71 68 10 136 2 180
-21 30 -16 20 -60 -17 -78 -17 -8 -24 -16 -17 -19 20 -6 61 26 68 55 6 21 2
31 -20 50 -31 26 -19 30 25 8 31 -16 54 -58 45 -82 -3 -7 -1 -13 3 -13 15 0
21 29 12 53 -11 29 -38 52 -81 71 -51 22 -24 19 47 -5 34 -11 67 -27 74 -35
20 -24 15 -75 -9 -95 -12 -9 -22 -20 -22 -23 0 -3 24 -5 53 -4 43 1 45 2 15 5
-21 2 -38 7 -38 11 1 13 27 42 39 42 8 0 8 5 -1 20 -7 10 -10 22 -7 25 3 3 57
-16 120 -41 71 -28 134 -47 168 -49 71 -5 56 7 -28 21 -67 11 -139 38 -256 94
-33 16 -73 34 -90 41 -34 13 -210 20 -238 10z m130 -27 c-3 -3 -12 -4 -19 -1
-8 3 -5 6 6 6 11 1 17 -2 13 -5z"/>
<path d="M3696 2215 c-3 -8 18 -22 56 -39 94 -40 63 -41 -38 0 -78 31 -158 54
-144 41 5 -4 134 -53 313 -117 48 -17 95 -30 105 -27 11 2 6 7 -18 14 l-35 11
40 2 c38 2 36 3 -30 20 -38 10 -109 38 -157 63 -61 32 -88 41 -92 32z"/>
<path d="M3140 2196 c-90 -27 -190 -73 -190 -88 0 -6 12 -3 26 7 39 25 142 61
217 75 37 7 67 16 67 21 0 14 -39 9 -120 -15z"/>
<path d="M3860 2193 c8 -3 32 -14 54 -24 21 -11 41 -18 43 -15 9 9 -62 46 -87
45 -15 0 -19 -3 -10 -6z"/>
<path d="M3225 2124 c-44 -22 -81 -52 -73 -59 4 -4 29 -2 55 3 38 9 40 10 11
7 -53 -5 -47 9 13 34 53 23 71 22 49 -4 -7 -8 -9 -15 -6 -15 11 0 36 27 36 39
0 16 -50 13 -85 -5z"/>
<path d="M5015 2124 c-18 -18 -17 -55 2 -61 8 -3 11 6 10 24 -1 19 3 28 13 28
10 0 15 -11 16 -35 1 -53 3 -57 20 -64 22 -9 54 11 54 34 0 11 5 20 10 20 23
0 7 20 -36 44 -54 30 -67 32 -89 10z m92 -45 c14 -14 6 -39 -12 -39 -18 0 -28
17 -21 35 6 18 18 19 33 4z"/>
<path d="M3115 2120 c-3 -6 1 -7 9 -4 18 7 21 14 7 14 -6 0 -13 -4 -16 -10z"/>
<path d="M3728 2061 c44 -21 158 -41 133 -23 -7 5 -22 7 -32 5 -10 -3 -19 -1
-19 5 0 5 -21 13 -46 17 -26 3 -54 9 -63 11 -9 3 3 -4 27 -15z"/>
<path d="M4948 2009 c-26 -28 -22 -64 8 -88 44 -35 65 -37 90 -8 17 21 25 23
33 13 7 -9 6 -18 -4 -34 -9 -12 -11 -23 -6 -27 6 -3 18 6 27 20 24 37 8 64
-66 108 -34 20 -62 37 -63 36 -1 0 -10 -9 -19 -20z m67 -35 c32 -21 33 -54 2
-54 -26 0 -67 34 -67 55 0 20 35 19 65 -1z"/>
<path d="M4860 1876 c-5 -13 -15 -26 -22 -29 -10 -5 -10 -8 2 -16 8 -5 32 -23
54 -40 21 -17 43 -31 47 -31 19 0 7 18 -32 49 -24 20 -39 39 -37 49 5 23 35
16 71 -14 29 -25 47 -31 47 -16 0 16 -78 72 -100 72 -12 0 -24 -9 -30 -24z"/>
<path d="M4772 1778 c-15 -15 -16 -58 -2 -58 6 0 10 9 10 19 0 24 12 32 30 21
12 -7 12 -12 0 -35 -16 -30 -5 -58 25 -63 17 -4 65 38 65 55 -1 12 -85 73
-101 73 -8 0 -20 -5 -27 -12z m91 -85 c-7 -18 -32 -16 -39 2 -4 8 -1 22 6 30
11 13 14 13 25 -2 7 -9 11 -23 8 -30z"/>
<path d="M4710 1695 c0 -8 -7 -15 -15 -15 -24 0 -18 -13 29 -59 56 -55 85 -47
31 9 -28 29 -35 43 -30 59 4 12 2 21 -4 21 -6 0 -11 -7 -11 -15z"/>
<path d="M4595 1671 c-6 -11 9 -23 19 -14 9 9 7 23 -3 23 -6 0 -12 -4 -16 -9z"/>
<path d="M4637 1633 c-6 -9 79 -103 94 -103 18 0 8 17 -40 64 -27 26 -51 44
-54 39z"/>
<path d="M4265 1569 c4 -5 16 -9 27 -9 20 0 20 -1 4 -19 -24 -27 -4 -36 35
-16 26 14 29 19 18 30 -17 15 -92 28 -84 14z"/>
<path d="M4558 1555 c-16 -36 4 -56 56 -53 31 2 41 -1 41 -12 0 -9 -9 -15 -22
-15 -28 -1 -31 -19 -5 -23 26 -4 54 25 50 52 -3 18 -10 21 -53 21 -38 0 -50 4
-50 15 0 8 10 16 23 18 30 5 28 22 -3 22 -17 0 -29 -8 -37 -25z"/>
<path d="M4468 1489 c-19 -11 -25 -59 -8 -59 6 0 10 9 10 19 0 25 12 32 30 21
12 -8 13 -13 2 -27 -22 -32 -25 -45 -15 -62 14 -22 52 -26 59 -7 3 9 12 16 20
16 23 0 16 19 -22 66 -38 46 -48 50 -76 33z m78 -70 c10 -17 -23 -46 -37 -32
-7 7 -9 19 -6 27 7 18 33 21 43 5z"/>
<path d="M4310 1430 c-24 -24 -25 -29 -4 -59 14 -20 23 -22 57 -18 48 7 67 0
67 -23 0 -29 -28 -46 -52 -31 -25 16 -37 6 -16 -15 20 -20 64 -9 85 22 14 22
14 26 -2 50 -15 23 -22 25 -68 22 -50 -3 -52 -2 -52 22 0 21 5 25 30 26 47 2
51 4 35 14 -24 16 -59 11 -80 -10z"/>
<path d="M4166 1297 c-24 -17 -18 -61 9 -65 51 -7 65 -14 65 -28 0 -13 -7 -15
-30 -10 -23 4 -30 2 -30 -10 0 -23 59 -14 77 12 12 19 12 24 -2 38 -9 9 -32
16 -51 16 -25 0 -34 4 -34 16 0 12 7 15 25 12 32 -7 42 8 16 21 -25 14 -24 14
-45 -2z"/>
<path d="M4080 1246 c0 -8 7 -31 16 -50 18 -36 14 -66 -9 -66 -7 0 -24 23 -37
50 -29 62 -48 51 -20 -12 28 -64 38 -70 80 -51 19 9 36 18 38 19 2 1 -1 10 -6
21 -6 10 -18 35 -26 55 -18 41 -36 58 -36 34z"/>
<path d="M3926 1190 c-37 -12 -46 -26 -39 -65 12 -59 58 -98 78 -65 11 18 26
10 23 -12 -2 -15 -11 -24 -25 -26 -28 -4 -30 -22 -3 -22 24 0 63 37 57 53 -2
7 -14 42 -27 80 -13 37 -26 67 -29 66 -3 0 -19 -5 -35 -9z m37 -57 c13 -32 13
-40 2 -52 -18 -19 -41 -1 -50 39 -13 60 25 69 48 13z"/>
<path d="M3756 1182 c-9 -15 -9 -182 0 -184 5 -2 10 9 12 23 4 37 49 47 75 17
22 -26 33 -18 17 14 -23 45 -85 138 -92 138 -4 0 -9 -4 -12 -8z m49 -102 c-3
-5 -13 -10 -21 -10 -10 0 -14 12 -14 43 l0 42 21 -32 c11 -18 18 -37 14 -43z"/>
<path d="M3454 1078 c10 -97 17 -128 28 -128 7 0 8 28 3 81 -7 90 -12 109 -27
109 -7 0 -8 -22 -4 -62z"/>
<path d="M3330 1102 c0 -16 -21 -104 -36 -154 -8 -27 15 -21 28 7 14 32 63 35
73 5 3 -11 13 -20 22 -20 8 0 13 4 11 8 -1 4 -16 45 -33 90 -22 60 -34 82 -47
82 -11 0 -18 -7 -18 -18z m50 -89 c0 -7 -9 -13 -20 -13 -21 0 -27 30 -13 66 6
16 9 14 19 -11 7 -17 13 -36 14 -42z"/>
<path d="M3535 1078 c-11 -16 -12 -24 -4 -27 7 -2 16 4 21 13 8 14 38 23 38
12 0 -2 2 -11 6 -19 3 -10 -4 -16 -24 -20 -37 -7 -47 -33 -27 -64 13 -19 19
-21 35 -13 10 5 27 10 38 10 18 0 19 4 11 45 -5 25 -13 54 -19 65 -14 27 -55
26 -75 -2z m65 -78 c0 -13 -7 -20 -20 -20 -13 0 -20 7 -20 20 0 13 7 20 20 20
13 0 20 -7 20 -20z"/>
</g>
</svg>
